<svg xmlns="http://www.w3.org/2000/svg" xmlns:xlink="http://www.w3.org/1999/xlink" width="1004" height="902" fill="none"><g filter="url(#a)"><mask id="d" width="940" height="838" x="32" y="16" maskUnits="userSpaceOnUse" style="mask-type:alpha"><path fill="url(#b)" d="M147.2 806h709.6c40.32 0 60.49 0 75.89-7.85a71.99 71.99 0 0 0 31.46-31.46c7.85-15.4 7.85-35.57 7.85-75.89V205.2c0-40.32 0-60.49-7.85-75.89a72 72 0 0 0-31.46-31.46C917.29 90 897.12 90 856.8 90H467.5c-21.5 0-49-2-76-22.5s-4-3-32.5-25S315.97 16 291 16H147.2c-40.32 0-60.49 0-75.89 7.85A72 72 0 0 0 39.85 55.3C32 70.71 32 90.88 32 131.2v559.6c0 40.32 0 60.49 7.85 75.89a72 72 0 0 0 31.46 31.46C86.71 806 106.88 806 147.2 806Z"/><path stroke="url(#c)" stroke-opacity=".07" stroke-width="6" d="M969 690.8c0 20.21 0 35.19-.97 47.05-.97 11.82-2.88 20.27-6.55 27.48a68.99 68.99 0 0 1-30.15 30.15c-7.21 3.67-15.66 5.58-27.49 6.55-11.85.97-26.83.97-47.04.97H147.2c-20.21 0-35.19 0-47.04-.97-11.83-.97-20.28-2.88-27.49-6.55a69 69 0 0 1-30.15-30.15c-3.67-7.21-5.58-15.66-6.55-27.49C35 726 35 711.01 35 690.8V131.2c0-20.21 0-35.19.97-47.05.97-11.82 2.88-20.27 6.55-27.48a69 69 0 0 1 30.15-30.15c7.21-3.67 15.66-5.58 27.48-6.55C112.02 19 127 19 147.2 19H291c12.29 0 21.77 1.1 31.62 4.8 9.9 3.73 20.39 10.15 34.55 21.07C371.57 56 372.78 57 374 57.97c1.2.93 2.4 1.84 15.68 11.92C417.48 90.99 445.79 93 467.5 93H856.8c20.21 0 35.19 0 47.05.97 11.82.97 20.27 2.88 27.48 6.55a68.99 68.99 0 0 1 30.15 30.16c3.67 7.2 5.58 15.65 6.55 27.47.97 11.86.97 26.84.97 47.05v485.6Z"/></mask><g mask="url(#d)"><path fill="url(#e)" d="M147.2 806h709.6c40.32 0 60.49 0 75.89-7.85a71.99 71.99 0 0 0 31.46-31.46c7.85-15.4 7.85-35.57 7.85-75.89V205.2c0-40.32 0-60.49-7.85-75.89a72 72 0 0 0-31.46-31.46C917.29 90 897.12 90 856.8 90H467.5c-21.5 0-49-2-76-22.5s-4-3-32.5-25S315.97 16 291 16H147.2c-40.32 0-60.49 0-75.89 7.85A72 72 0 0 0 39.85 55.3C32 70.71 32 90.88 32 131.2v559.6c0 40.32 0 60.49 7.85 75.89a72 72 0 0 0 31.46 31.46C86.71 806 106.88 806 147.2 806Z"/><path fill="url(#f)" fill-opacity=".12" d="M147.2 806h709.6c40.32 0 60.49 0 75.89-7.85a71.99 71.99 0 0 0 31.46-31.46c7.85-15.4 7.85-35.57 7.85-75.89V205.2c0-40.32 0-60.49-7.85-75.89a72 72 0 0 0-31.46-31.46C917.29 90 897.12 90 856.8 90H467.5c-21.5 0-49-2-76-22.5s-4-3-32.5-25S315.97 16 291 16H147.2c-40.32 0-60.49 0-75.89 7.85A72 72 0 0 0 39.85 55.3C32 70.71 32 90.88 32 131.2v559.6c0 40.32 0 60.49 7.85 75.89a72 72 0 0 0 31.46 31.46C86.71 806 106.88 806 147.2 806Z" style="mix-blend-mode:multiply"/><path stroke="url(#g)" stroke-opacity=".07" stroke-width="6" d="M969 690.8c0 20.21 0 35.19-.97 47.05-.97 11.82-2.88 20.27-6.55 27.48a68.99 68.99 0 0 1-30.15 30.15c-7.21 3.67-15.66 5.58-27.49 6.55-11.85.97-26.83.97-47.04.97H147.2c-20.21 0-35.19 0-47.04-.97-11.83-.97-20.28-2.88-27.49-6.55a69 69 0 0 1-30.15-30.15c-3.67-7.21-5.58-15.66-6.55-27.49C35 726 35 711.01 35 690.8V131.2c0-20.21 0-35.19.97-47.05.97-11.82 2.88-20.27 6.55-27.48a69 69 0 0 1 30.15-30.15c7.21-3.67 15.66-5.58 27.48-6.55C112.02 19 127 19 147.2 19H291c12.29 0 21.77 1.1 31.62 4.8 9.9 3.73 20.39 10.15 34.55 21.07C371.57 56 372.78 57 374 57.97c1.2.93 2.4 1.84 15.68 11.92C417.48 90.99 445.79 93 467.5 93H856.8c20.21 0 35.19 0 47.05.97 11.82.97 20.27 2.88 27.48 6.55a68.99 68.99 0 0 1 30.15 30.16c3.67 7.2 5.58 15.65 6.55 27.47.97 11.86.97 26.84.97 47.05v485.6Z"/><g filter="url(#h)"><rect width="940" height="656" x="32" y="150" fill="url(#i)" rx="72"/><rect width="940" height="656" x="32" y="150" fill="url(#j)" fill-opacity=".1" rx="72" style="mix-blend-mode:multiply"/></g><g filter="url(#k)"><path fill="#fff" fill-opacity=".1" d="M32 708h940v18H32z" shape-rendering="crispEdges"/></g><g filter="url(#l)"><path fill="#fff" fill-opacity=".1" d="M32 745h940v18H32z" shape-rendering="crispEdges"/></g></g></g><defs><linearGradient id="b" x1="502" x2="502" y1="64" y2="854" gradientUnits="userSpaceOnUse"><stop stop-color="#5BB1E0"/><stop offset=".23" stop-color="#0591DE"/></linearGradient><linearGradient id="c" x1="502" x2="502" y1="136.5" y2="202.5" gradientUnits="userSpaceOnUse"><stop stop-color="#003C5C"/><stop offset="1" stop-color="#003C5C" stop-opacity="0"/></linearGradient><linearGradient id="e" x1="502" x2="502" y1="16" y2="854" gradientUnits="userSpaceOnUse"><stop stop-color="#1A8784"/><stop offset="0" stop-color="#1DA6A2"/><stop offset=".54" stop-color="#098DD6"/></linearGradient><linearGradient id="g" x1="502" x2="502" y1="136.5" y2="202.5" gradientUnits="userSpaceOnUse"><stop stop-color="#003C5C"/><stop offset="1" stop-color="#003C5C" stop-opacity="0"/></linearGradient><linearGradient id="i" x1="502" x2="502" y1="150" y2="806" gradientUnits="userSpaceOnUse"><stop stop-color="#57B7B4"/><stop offset="1" stop-color="#61D5D1"/></linearGradient><filter id="a" width="1004" height="902" x="0" y="0" color-interpolation-filters="sRGB" filterUnits="userSpaceOnUse"><feFlood flood-opacity="0" result="BackgroundImageFix"/><feColorMatrix in="SourceAlpha" result="hardAlpha" values="0 0 0 0 0 0 0 0 0 0 0 0 0 0 0 0 0 0 127 0"/><feOffset dy="16"/><feGaussianBlur stdDeviation="16"/><feComposite in2="hardAlpha" operator="out"/><feColorMatrix values="0 0 0 0 0 0 0 0 0 0 0 0 0 0 0 0 0 0 0.1 0"/><feBlend in2="BackgroundImageFix" result="effect1_dropShadow_102_4"/><feColorMatrix in="SourceAlpha" result="hardAlpha" values="0 0 0 0 0 0 0 0 0 0 0 0 0 0 0 0 0 0 127 0"/><feOffset dy="12"/><feGaussianBlur stdDeviation="12"/><feColorMatrix values="0 0 0 0 0 0 0 0 0 0 0 0 0 0 0 0 0 0 0.21 0"/><feBlend in2="effect1_dropShadow_102_4" result="effect2_dropShadow_102_4"/><feColorMatrix in="SourceAlpha" result="hardAlpha" values="0 0 0 0 0 0 0 0 0 0 0 0 0 0 0 0 0 0 127 0"/><feOffset dy="8"/><feGaussianBlur stdDeviation="8"/><feComposite in2="hardAlpha" operator="out"/><feColorMatrix values="0 0 0 0 0 0 0 0 0 0 0 0 0 0 0 0 0 0 0.3 0"/><feBlend in2="effect2_dropShadow_102_4" result="effect3_dropShadow_102_4"/><feBlend in="SourceGraphic" in2="effect3_dropShadow_102_4" result="shape"/></filter><filter id="h" width="1068" height="784" x="-32" y="70" color-interpolation-filters="sRGB" filterUnits="userSpaceOnUse"><feFlood flood-opacity="0" result="BackgroundImageFix"/><feColorMatrix in="SourceAlpha" result="hardAlpha" values="0 0 0 0 0 0 0 0 0 0 0 0 0 0 0 0 0 0 127 0"/><feOffset dy="-16"/><feGaussianBlur stdDeviation="32"/><feComposite in2="hardAlpha" operator="out"/><feColorMatrix values="0 0 0 0 0 0 0 0 0 0.517647 0 0 0 0 0.803922 0 0 0 0.5 0"/><feBlend in2="BackgroundImageFix" mode="multiply" result="effect1_dropShadow_102_4"/><feBlend in="SourceGraphic" in2="effect1_dropShadow_102_4" result="shape"/><feColorMatrix in="SourceAlpha" result="hardAlpha" values="0 0 0 0 0 0 0 0 0 0 0 0 0 0 0 0 0 0 127 0"/><feOffset dy="-32"/><feGaussianBlur stdDeviation="64"/><feComposite in2="hardAlpha" k2="-1" k3="1" operator="arithmetic"/><feColorMatrix values="0 0 0 0 0.0466319 0 0 0 0 0.440508 0 0 0 0 0.658333 0 0 0 0.3 0"/><feBlend in2="shape" mode="multiply" result="effect2_innerShadow_102_4"/><feColorMatrix in="SourceAlpha" result="hardAlpha" values="0 0 0 0 0 0 0 0 0 0 0 0 0 0 0 0 0 0 127 0"/><feOffset dy="6"/><feGaussianBlur stdDeviation="3"/><feComposite in2="hardAlpha" k2="-1" k3="1" operator="arithmetic"/><feColorMatrix values="0 0 0 0 1 0 0 0 0 1 0 0 0 0 1 0 0 0 0.2 0"/><feBlend in2="effect2_innerShadow_102_4" result="effect3_innerShadow_102_4"/></filter><filter id="k" width="952" height="36" x="26" y="702" color-interpolation-filters="sRGB" filterUnits="userSpaceOnUse"><feFlood flood-opacity="0" result="BackgroundImageFix"/><feColorMatrix in="SourceAlpha" result="hardAlpha" values="0 0 0 0 0 0 0 0 0 0 0 0 0 0 0 0 0 0 127 0"/><feOffset dy="6"/><feGaussianBlur stdDeviation="3"/><feComposite in2="hardAlpha" operator="out"/><feColorMatrix values="0 0 0 0 0 0 0 0 0 0.517647 0 0 0 0 0.803922 0 0 0 0.1 0"/><feBlend in2="BackgroundImageFix" mode="multiply" result="effect1_dropShadow_102_4"/><feBlend in="SourceGraphic" in2="effect1_dropShadow_102_4" result="shape"/><feColorMatrix in="SourceAlpha" result="hardAlpha" values="0 0 0 0 0 0 0 0 0 0 0 0 0 0 0 0 0 0 127 0"/><feOffset dy="-6"/><feGaussianBlur stdDeviation="3"/><feComposite in2="hardAlpha" k2="-1" k3="1" operator="arithmetic"/><feColorMatrix values="0 0 0 0 0 0 0 0 0 0.517647 0 0 0 0 0.803922 0 0 0 0.1 0"/><feBlend in2="shape" mode="multiply" result="effect2_innerShadow_102_4"/></filter><filter id="l" width="952" height="36" x="26" y="739" color-interpolation-filters="sRGB" filterUnits="userSpaceOnUse"><feFlood flood-opacity="0" result="BackgroundImageFix"/><feColorMatrix in="SourceAlpha" result="hardAlpha" values="0 0 0 0 0 0 0 0 0 0 0 0 0 0 0 0 0 0 127 0"/><feOffset dy="6"/><feGaussianBlur stdDeviation="3"/><feComposite in2="hardAlpha" operator="out"/><feColorMatrix values="0 0 0 0 0 0 0 0 0 0.517647 0 0 0 0 0.803922 0 0 0 0.1 0"/><feBlend in2="BackgroundImageFix" mode="multiply" result="effect1_dropShadow_102_4"/><feBlend in="SourceGraphic" in2="effect1_dropShadow_102_4" result="shape"/><feColorMatrix in="SourceAlpha" result="hardAlpha" values="0 0 0 0 0 0 0 0 0 0 0 0 0 0 0 0 0 0 127 0"/><feOffset dy="-6"/><feGaussianBlur stdDeviation="3"/><feComposite in2="hardAlpha" k2="-1" k3="1" operator="arithmetic"/><feColorMatrix values="0 0 0 0 0 0 0 0 0 0.517647 0 0 0 0 0.803922 0 0 0 0.1 0"/><feBlend in2="shape" mode="multiply" result="effect2_innerShadow_102_4"/></filter><pattern id="f" width="2.18" height="2.44" patternContentUnits="objectBoundingBox"><use xlink:href="#m" transform="scale(0)"/></pattern><pattern id="j" width=".53" height=".76" patternContentUnits="objectBoundingBox"><use xlink:href="#n" transform="scale(0)"/></pattern></defs></svg>